<?xml version="1.0" encoding="UTF-8"?>
<!DOCTYPE svg PUBLIC "-//W3C//DTD SVG 1.1//EN" "http://www.w3.org/Graphics/SVG/1.1/DTD/svg11.dtd">
<svg
	xmlns="http://www.w3.org/2000/svg"
	xml:space="preserve"
	width="700px"
	height="736px"
	version="1.1"
	style="shape-rendering:geometricPrecision; text-rendering:geometricPrecision; image-rendering:optimizeQuality; fill-rule:evenodd; clip-rule:evenodd"
	viewBox="0 0 287 302"
	xmlns:xlink="http://www.w3.org/1999/xlink"
>
	<defs>
		<style type="text/css">
			<![CDATA[
				.text {fill:#000000}
				.cup {fill:#000000;fill-rule:nonzero}
				.trunk {fill:#AB0000;fill-rule:nonzero}
			]]>
		</style>
	</defs>
	<g id="nogal">
		<path class="text" d="M83 257c0,-9 -6,-14 -14,-14 -8,0 -11,5 -12,7l0 0 0 -6 -11 0 0 41 11 0 0 -23c0,-6 4,-10 9,-10 6,0 7,5 7,8l0 25 10 0 0 -28zm50 8c0,-15 -10,-22 -21,-22 -11,0 -21,7 -21,22 0,15 10,21 21,21 11,0 21,-6 21,-21zm-11 0c0,5 -2,12 -10,12 -8,0 -10,-7 -10,-12 0,-5 2,-13 10,-13 8,0 10,8 10,13zm45 -21l0 6 0 0c-1,-2 -4,-7 -12,-7 -9,0 -17,7 -17,21 0,15 8,21 18,21 6,0 9,-3 11,-6l0 0 0 5c0,7 -3,10 -9,10 -6,0 -7,-2 -7,-4l-12 0c1,8 10,12 18,12 20,0 21,-12 21,-19l0 -39 -11 0zm-18 21c0,-9 5,-12 9,-12 6,0 9,5 9,12 0,5 -2,11 -9,11 -6,0 -9,-6 -9,-11zm71 -10c0,-10 -10,-12 -16,-12 -8,0 -17,2 -18,15l10 0c0,-3 1,-6 7,-6 2,0 7,0 7,5 0,2 -2,3 -4,3l-10 1c-7,1 -12,5 -12,13 0,9 7,12 13,12 7,0 11,-3 13,-6 0,3 0,3 1,5l12 0 0 -1c-2,-1 -3,-2 -3,-7l0 -22zm-10 16c0,5 -5,8 -10,8 -2,0 -5,-2 -5,-5 0,-5 3,-6 7,-6 5,-1 7,-2 8,-3l0 6zm31 -41l-11 0 0 55 11 0 0 -55z"/>
		<path class="cup" d="M40 80c-26,0 -39,32 -21,50 6,5 13,8 21,8 3,0 5,3 5,6 0,22 25,36 44,25 5,-3 7,4 20,4 13,0 15,-7 20,-4 9,5 20,5 29,0 5,-3 7,4 20,4 13,0 15,-7 20,-4 19,11 44,-3 44,-25 0,-3 2,-6 5,-6 26,0 39,-31 21,-50 -5,-5 -13,-8 -21,-8 -3,0 -5,-2 -5,-5 0,-17 -13,-30 -29,-30 -3,0 -6,-2 -6,-5 0,-8 -3,-15 -8,-21 -9,-9 -24,-11 -35,-4 -5,3 -7,-4 -20,-4 -13,0 -15,7 -20,4 -19,-11 -44,2 -44,25 0,3 -2,5 -5,5l0 0c-17,0 -30,13 -30,30 0,3 -2,5 -5,5zm-28 1c6,-6 14,-10 23,-12 2,-18 16,-32 34,-34 4,-27 33,-43 57,-31 11,-5 24,-5 35,0 24,-12 53,4 57,31 18,2 32,16 34,34 33,5 47,45 24,68 -6,6 -15,11 -24,12 -3,27 -32,42 -56,31 -11,5 -24,5 -35,0 -11,5 -24,5 -35,0 -11,5 -23,5 -34,0 -25,11 -54,-4 -57,-31 -33,-4 -47,-45 -23,-68z"/>
		<path class="trunk" d="M129 123l0 -39c0,-7 -3,-14 -8,-19 -5,-5 -12,-8 -19,-8 -5,0 -8,-3 -8,-7 0,-4 3,-8 8,-8 11,0 22,5 29,12 8,8 13,19 13,30 0,-11 4,-22 12,-30 8,-7 18,-12 30,-12 4,0 7,4 7,8 0,4 -3,7 -7,7 -8,0 -14,3 -19,8 -5,5 -8,12 -8,19l0 39 33 -19 0 0c7,-4 11,-10 13,-17 2,-6 1,-14 -3,-20 -2,-4 -1,-8 3,-11 4,-2 8,0 10,3 6,10 7,22 5,32 -3,11 -10,20 -20,26l0 0 -21 12 24 0c8,0 14,-3 19,-8 5,-5 8,-12 8,-19 0,-5 3,-8 8,-8 4,0 7,3 7,8 0,11 -4,22 -12,29 -8,8 -18,13 -30,13l-44 0 0 44c0,7 3,14 8,19 5,5 11,8 19,8 4,0 7,3 7,8 0,4 -3,7 -7,7 -12,0 -22,-5 -30,-12 -8,-8 -12,-18 -12,-30 0,12 -5,22 -13,30 -7,7 -18,12 -29,12 -5,0 -8,-3 -8,-7 0,-5 3,-8 8,-8 7,0 14,-3 19,-8 5,-5 8,-12 8,-19l0 -44 -45 0c-11,0 -22,-5 -30,-13 -7,-7 -12,-18 -12,-29 0,-5 4,-8 8,-8 4,0 7,3 7,8 0,7 3,14 8,19 5,5 12,8 19,8l24 0 -21 -12 0 0c-10,-6 -16,-15 -19,-26 -3,-10 -2,-22 4,-32 2,-3 7,-5 10,-3 4,3 5,7 3,11 -4,6 -4,14 -3,20 2,7 7,13 13,17l0 0 34 19z"/>
	</g>
</svg>
